<mxfile host="app.diagrams.net" modified="2023-01-19T13:54:36.357Z" agent="5.0 (Windows NT 10.0; Win64; x64) AppleWebKit/537.36 (KHTML, like Gecko) Chrome/109.0.0.0 Safari/537.36" version="20.8.5" etag="N51_uNPlFM8sPnM2kP4D" type="github">
  <diagram id="ytqMaGcEIMhdmZUwpOAJ" name="第 1 页">
    <mxGraphModel dx="1709" dy="943" grid="1" gridSize="10" guides="1" tooltips="1" connect="1" arrows="1" fold="1" page="1" pageScale="1" pageWidth="827" pageHeight="1169" math="0" shadow="0">
      <root>
        <mxCell id="0" />
        <mxCell id="1" parent="0" />
        <mxCell id="hDAYQeu9CH0nBcR6-gjn-1" value="用户端" style="rounded=0;whiteSpace=wrap;html=1;" vertex="1" parent="1">
          <mxGeometry x="120" y="160" width="300" height="50" as="geometry" />
        </mxCell>
        <mxCell id="hDAYQeu9CH0nBcR6-gjn-2" value="管理端" style="rounded=0;whiteSpace=wrap;html=1;" vertex="1" parent="1">
          <mxGeometry x="450" y="160" width="190" height="50" as="geometry" />
        </mxCell>
        <mxCell id="hDAYQeu9CH0nBcR6-gjn-3" value="请求处理层（Web 层：权限控制、数据结构处理）" style="rounded=0;whiteSpace=wrap;html=1;" vertex="1" parent="1">
          <mxGeometry x="120" y="240" width="520" height="50" as="geometry" />
        </mxCell>
        <mxCell id="hDAYQeu9CH0nBcR6-gjn-4" value="业务服务层（Service 层：业务组装）" style="rounded=0;whiteSpace=wrap;html=1;" vertex="1" parent="1">
          <mxGeometry x="120" y="320" width="520" height="50" as="geometry" />
        </mxCell>
        <mxCell id="hDAYQeu9CH0nBcR6-gjn-5" value="领域层（Domain 层：核心逻辑抽象实现）（内聚）" style="rounded=0;whiteSpace=wrap;html=1;" vertex="1" parent="1">
          <mxGeometry x="120" y="400" width="520" height="50" as="geometry" />
        </mxCell>
        <mxCell id="hDAYQeu9CH0nBcR6-gjn-6" value="数据仓库（Repository 层）（MySQL、Redis）" style="rounded=0;whiteSpace=wrap;html=1;" vertex="1" parent="1">
          <mxGeometry x="120" y="480" width="280" height="50" as="geometry" />
        </mxCell>
        <mxCell id="hDAYQeu9CH0nBcR6-gjn-7" value="适配器（Adapter 层）（三方服务）" style="rounded=0;whiteSpace=wrap;html=1;" vertex="1" parent="1">
          <mxGeometry x="420" y="480" width="220" height="50" as="geometry" />
        </mxCell>
      </root>
    </mxGraphModel>
  </diagram>
</mxfile>
